<svg xmlns="http://www.w3.org/2000/svg" xmlns:xlink="http://www.w3.org/1999/xlink" viewBox="0 0 880.47 666.52">
  <defs>
    <radialGradient id="b61906e9-c06a-4b61-8f17-f188e84d816b" cx="264.22" cy="1060.42" r="306.02" gradientTransform="matrix(1.09, 0, 0, -1.42, 26.38, 1853.74)" gradientUnits="userSpaceOnUse">
      <stop offset="0" stop-color="#c7f2ff"/>
      <stop offset="0.23" stop-color="#b1e1f4"/>
      <stop offset="1" stop-color="#47c2bb"/>
    </radialGradient>
    <radialGradient id="b3fb8c0b-0c6c-4d11-bc60-ce821f98b066" cx="311.76" cy="1139.34" r="528.28" gradientTransform="matrix(1, 0, 0, -1, 0, 1432.62)" xlink:href="#b61906e9-c06a-4b61-8f17-f188e84d816b"/>
    <radialGradient id="e7473661-2117-4548-be98-1ed0dedda877" cx="313" cy="1115.46" r="248.32" gradientTransform="matrix(1, 0, 0, -1, 0, 1432.62)" xlink:href="#b61906e9-c06a-4b61-8f17-f188e84d816b"/>
    <radialGradient id="bffd06dc-8723-48df-9fbb-7b97113f2a96" cx="296.67" cy="1159.44" r="481.62" gradientTransform="matrix(1, 0, 0, -1, 0, 1432.62)" xlink:href="#b61906e9-c06a-4b61-8f17-f188e84d816b"/>
    <radialGradient id="b13d71dd-083d-4d67-a0ee-458380a515a6" cx="301.53" cy="1160.57" r="437.62" gradientTransform="matrix(1, 0, 0, -1, 0, 1432.62)" xlink:href="#b61906e9-c06a-4b61-8f17-f188e84d816b"/>
    <radialGradient id="a575ac33-7dd2-43b4-8430-793721dcbddf" cx="311.76" cy="1139.34" r="388.48" gradientTransform="matrix(1, 0, 0, -1, 0, 1432.62)" xlink:href="#b61906e9-c06a-4b61-8f17-f188e84d816b"/>
    <radialGradient id="a5566ada-139a-4b3d-8ff6-27d083c0e2ce" cx="311.76" cy="1139.34" r="401.11" gradientTransform="matrix(1, 0, 0, -1, 0, 1432.62)" xlink:href="#b61906e9-c06a-4b61-8f17-f188e84d816b"/>
    <clipPath id="acbe8c25-82e1-4b93-9873-07f9b9f6a2be">
      <rect x="273.23" y="188.75" width="137.04" height="222.65" fill="none"/>
    </clipPath>
    <clipPath id="a1cb16ac-ac4c-44cc-81c8-910926f7aada">
      <circle cx="703.06" cy="266.68" r="27.04" fill="none"/>
    </clipPath>
    <linearGradient id="ac3f1410-98b1-4c6d-a3c5-6d540aa1c584" x1="716.54" y1="1186.11" x2="678.74" y2="1142.34" gradientTransform="matrix(0.77, 0.63, 0.63, -0.77, -582.43, 721.16)" gradientUnits="userSpaceOnUse">
      <stop offset="0" stop-color="#ffb22a"/>
      <stop offset="1" stop-color="#feb32f" stop-opacity="0"/>
    </linearGradient>
    <linearGradient id="afafe13c-bc6e-4910-995c-0a230b936dc0" x1="731.01" y1="1175.78" x2="693.2" y2="1132.03" gradientTransform="matrix(0.77, 0.63, 0.63, -0.77, -570.38, 712.94)" xlink:href="#ac3f1410-98b1-4c6d-a3c5-6d540aa1c584"/>
  </defs>
  <g id="ba8160e6-40b6-4f64-b7f7-148c44cc15ed" data-name="Layer 2">
    <g id="a2cfa3ea-dcdf-494b-a06a-f9b9c1a7ef48" data-name="Layer 1">
      <g id="a755925f-b366-432d-a753-a80ce73132d9" data-name="Layer 2-2-2">
        <g id="b9786431-f784-43d5-a24f-dc8df53e624a" data-name="Homepage">
          <polygon points="122.19 19.18 122.19 259.55 179.92 303.06 179.92 128.64 122.19 19.18" fill="url(#b61906e9-c06a-4b61-8f17-f188e84d816b)"/>
          <polygon points="202.38 402.21 202.38 440.92 227.38 436.78 227.38 405.26 202.38 402.21" fill="url(#b3fb8c0b-0c6c-4d11-bc60-ce821f98b066)"/>
          <polygon points="217.6 355.38 217.6 331.58 231.97 342.27 231.97 363.12 217.6 355.38" fill="url(#e7473661-2117-4548-be98-1ed0dedda877)"/>
          <polyline points="0 563.92 0 443.39 71.39 438.93 71.39 532.31" fill="url(#b3fb8c0b-0c6c-4d11-bc60-ce821f98b066)"/>
          <polygon points="432.24 51.99 432.24 127.01 424.04 149.18 424.04 83.54 432.24 51.99" fill="url(#b3fb8c0b-0c6c-4d11-bc60-ce821f98b066)"/>
          <polygon points="455.09 433.78 455.09 470.37 437.91 462.46 437.91 431.09 455.09 433.78" fill="url(#e7473661-2117-4548-be98-1ed0dedda877)"/>
          <polygon points="772 392.1 880.47 385.23 880.47 597.53 772 568.55 772 392.1" fill="url(#bffd06dc-8723-48df-9fbb-7b97113f2a96)"/>
          <polygon points="175.12 583.03 271.19 583.03 282.93 557.89 199.12 557.89 175.12 583.03" fill="url(#b61906e9-c06a-4b61-8f17-f188e84d816b)"/>
          <polygon points="332.58 487.57 332.58 494.82 368.82 494.82 365.58 487.57 332.58 487.57" fill="url(#bffd06dc-8723-48df-9fbb-7b97113f2a96)"/>
          <polygon points="710.51 257.34 710.51 372.2 611.26 380.17 611.26 299.19 710.51 257.34" fill="url(#b13d71dd-083d-4d67-a0ee-458380a515a6)"/>
          <polygon points="420.01 283.42 420.01 325.74 392.39 357.3 392.39 325.45 420.01 283.42" fill="url(#a575ac33-7dd2-43b4-8430-793721dcbddf)"/>
          <polygon points="546.11 122.32 546.11 274.47 639.36 213.12 639.36 0 546.11 122.32" fill="url(#b3fb8c0b-0c6c-4d11-bc60-ce821f98b066)"/>
          <polygon points="543.31 427.9 601.46 430.29 601.46 510.03 543.31 484.12 543.31 427.9" fill="url(#b3fb8c0b-0c6c-4d11-bc60-ce821f98b066)"/>
          <polygon points="432.24 528.01 502 528.01 553.95 559.92 459.66 559.92 432.24 528.01" fill="url(#b61906e9-c06a-4b61-8f17-f188e84d816b)"/>
          <polygon points="229.02 502.49 217.6 510.03 254.51 510.03 261.04 502.49 229.02 502.49" fill="url(#b3fb8c0b-0c6c-4d11-bc60-ce821f98b066)"/>
          <polygon points="316.58 470.52 296.98 470.52 300.25 466.26 317.88 466.26 316.58 470.52" fill="url(#a5566ada-139a-4b3d-8ff6-27d083c0e2ce)"/>
          <polygon points="404.13 479.05 359.7 479.05 357.09 472.23 396.95 472.23 404.13 479.05" fill="url(#b3fb8c0b-0c6c-4d11-bc60-ce821f98b066)"/>
          <path d="M396.54,445.93H287a13.73,13.73,0,0,1-13.71-13.72V411.47L321.17,300.7l-48-111.93V168a13.71,13.71,0,0,1,13.71-13.71H396.47A13.71,13.71,0,0,1,410.19,168h0v20.76L362.32,302.05l48,109.32v20.81a13.73,13.73,0,0,1-13.72,13.71Z" fill="#1e2327"/>
          <rect x="273.23" y="188.75" width="137.04" height="222.65" fill="#10bef0"/>
          <circle cx="341.11" cy="171.68" r="3.06" fill="#697079"/>
          <circle cx="351.23" cy="171.68" r="1.52" fill="#697079"/>
          <circle cx="341.75" cy="427.51" r="12.89" fill="none" stroke="#3b3f41" stroke-miterlimit="10" stroke-width="1.79"/>
          <g clip-path="url(#acbe8c25-82e1-4b93-9873-07f9b9f6a2be)">
            <g>
              <path d="M414.39,344l-26.78,7.45-.46,20.84c-6.23,81.06-.93,116.58,30.7,102.21a31.87,31.87,0,0,0,17.55-16.2l1.14-2.44C454.83,417.82,441,382.89,414.39,344Z" fill="#ef5489"/>
              <path d="M391.31,304.88c-4.4,2.23-5,14.46-4.63,25.92-1.93-1.91-3.61-6-4.75-6.86-4.16-3-8.77,3.91,6.28,27.49L415,344c-1.05-1.44,2.78-17.92-1.26-25.89C408.81,308.42,399.32,300.82,391.31,304.88Z" fill="#a36143"/>
              <rect x="285.42" y="439.44" width="111.18" height="49.58" fill="#f15961"/>
              <path d="M397,382c-10.51-30.8-29.63-43.43-52.49-47.64l-1.5-21.1h-21.8l-1.5,21.1c-22.86,4.17-48.53,21.72-55.21,48.23Z" fill="#a36143"/>
              <path d="M426.26,508.41c-1.72-54.67-19.87-101-28.58-126.42-6.66-19.54-17.55-31.76-29.9-39.17-8.51,5.83-20.74,9.5-34.28,9.5-14.18,0-26.86-4-35.44-10.29-15.46,8.32-29.78,22.31-34.38,40.54,0,0-12.37,41.56-6.56,91.31,2.92,24.83,29.34,39.5,51.81,28.58,22.28-10.87,29.41-29.56,29.41-29.56l4.81-21h35.29l10.28,92.4h2.69a34.83,34.83,0,0,0,34.85-34.82Z" fill="#ef5489"/>
              <path d="M309.51,298.85l51.6-18a51.37,51.37,0,0,0,.93-9.26c0-18.46-7.51-33.42-30.05-33.42a42.64,42.64,0,0,0-5.65.35,21.78,21.78,0,1,0-25.51,17.28,22.43,22.43,0,0,0,3.37.38,48.22,48.22,0,0,0-2.28,15.41C301.94,280,304.8,289.51,309.51,298.85Z" fill="#422727"/>
              <path d="M307.29,283.9c0,22.4,12.76,40.56,27,40.56s27-18.16,27-40.56-8.22-34.55-26.22-34.55S307.29,261.5,307.29,283.9Z" fill="#a36143"/>
              <path d="M334.82,298.23h.25c.16,0,3.94-1.34,5.27-4s-1.74-15-2.35-17.44a.78.78,0,0,0-.92-.55.75.75,0,0,0-.55.92c1.48,5.91,3.23,14.85,2.48,16.4-.88,1.76-3.43,2.95-4.4,3.25a.76.76,0,0,0-.48.94h0A.77.77,0,0,0,334.82,298.23Z" fill="#b26e4b"/>
              <path d="M355.58,266.31A14.66,14.66,0,0,0,340.93,281v.78H335.6V281a14.65,14.65,0,1,0-.31,3h5.88a14.65,14.65,0,1,0,14.41-17.66Zm-34.57,27a12.39,12.39,0,1,1,12.41-12.37V281a12.38,12.38,0,0,1-12.37,12.39h0Zm34.57,0A12.39,12.39,0,1,1,368,280.92V281h0a12.42,12.42,0,0,1-12.39,12.38Z" fill="#fc6"/>
            </g>
          </g>
          <path d="M555.17,331.74c5.48-1.44,9.5,29.37-6.86,25.91C538,377.8,518.68,365,518.68,365s-18.76,2.2-22.34-9.77c-11.36.12-14.47-15.14-9.46-19.31-7.66-6.19,1.41-12.38,1.41-12.38s-9.64-19.72,12.78-20.54c8.4-17.07,26.83-4.12,26.83-4.12L536,323.5S549.7,333.18,555.17,331.74Z" fill="#422727"/>
          <path d="M521.9,317.09c-6-2.78-10.35-.27-14.58,5.66-.59.71-3.43,4.38-3.43,5.4a3.45,3.45,0,0,0,1.95,2.52c-1.77,6.05-.84,10.11,2.8,11.81,5,2.28,11.92-.46,16.18-9.63C528.22,325.48,528.35,320.09,521.9,317.09Z" fill="#774331"/>
          <path d="M506.65,549.32l10.11,5.29a1.48,1.48,0,0,1,.84,1.36v.77H489.74s.51-13.24,1-20.72c.6-8.42,1.2-19.93,3.43-35,0-37.42-1.83-80.28,5.45-86.8h31.82l2.29,32.83.3,54.86c.11,7.28.14,35.43.62,37.92a13.35,13.35,0,0,0,7.33,9.45l10.38,5.3a1.48,1.48,0,0,1,.84,1.36v.76H522.85v-.09l-.07.13c-.26-8-.88-36.37-1.14-42.52q-.21-6.09-.23-12.16L513.92,453l-6.76,49.57c-.56,3.22-6.77,37.49-4.87,41.82C503.47,546.94,504.19,548,506.65,549.32Z" fill="#103540"/>
          <path d="M545.13,372.39c-2.56-10.16-21.72-23.23-21.72-23.23v-15l-11.28,3V349c-8.76,1.59-17,14.54-20.7,23.15Z" fill="#774331"/>
          <polygon points="523.94 349.58 522.16 366.87 511.59 348.96 503.75 360.07 490.56 443.1 534.35 443.1 530.76 360.92 525.38 352.04 523.94 349.58" fill="#0f9c97"/>
          <path d="M544.38,318.78c22.86,8.36,14.69,17.15,14.69,17.15s-24.63,11.95-25.2,11.95.57,8.54-10.37.81S518,326,518,326a9.45,9.45,0,0,1-1.14-12.07c4.39-6.86,7.44-2.89,7.35-15.4S540.55,293.17,544.38,318.78Z" fill="#422727"/>
          <path d="M523.94,349.45c23,5.18,33.14,30.79,31.23,48.51-2,18.72-12.5,24.24-15.54,23.89a440.32,440.32,0,0,1,1.72,55.91H529.47C528.8,449.18,534.07,370.47,523.94,349.45Z" fill="#fff"/>
          <path d="M473.12,385.29c5.93-11.94,18.57-34.4,38.47-36.33,3.5,9.45-1.84,96-3,128.75H481s1.66-46.36,4.57-56.59C472.38,413.49,467.07,397.6,473.12,385.29Z" fill="#fff"/>
          <polygon points="538.59 372.71 537.65 376.3 536.71 372.71 538.59 372.71" fill="#6a707a"/>
          <rect x="534.34" y="374.3" width="6.64" height="11.22" rx="1.83" fill="#f4f8fa"/>
          <rect x="535.93" y="376.01" width="3.45" height="3.75" fill="#ef5489"/>
          <path d="M540.62,398.89a5.71,5.71,0,0,0-3.58-7.24H537a5.71,5.71,0,0,0-7.23,3.59v.09Z" fill="#d8e5e9"/>
          <path d="M523.56,394.65h22.78a1,1,0,0,1,1,1h0a1,1,0,0,1-.11.44L534.49,421a3.41,3.41,0,0,1-3.08,1.92H508.62a1,1,0,0,1-.95-.94h0a1.13,1.13,0,0,1,.1-.44l12.71-24.94A3.43,3.43,0,0,1,523.56,394.65Z" fill="#9870b1"/>
          <path d="M545.19,409.56a23,23,0,0,1-5.37,7,2.49,2.49,0,0,1-3.48-.38c-1.75-2.17-3.94-6.32-.49-11,3-4,7-.55,9,1.55A2.47,2.47,0,0,1,545.19,409.56Z" fill="#774331"/>
          <path d="M518.91,402.25a19,19,0,0,0-10.23,2.19s-5.18,7.37,0,14.76c3.43-3.73,13.24-4.4,14-13.29C522.93,403.69,521.19,402.32,518.91,402.25Z" fill="#774331"/>
          <path d="M447,487.22,439.67,491a1,1,0,0,0-.6,1v.55H462l-3.35-51.86,1.94-41.23a9.4,9.4,0,0,0-8.94-9.84h-.44l-17.52-.15a9.4,9.4,0,0,0-9.48,9.32h0v42.47l4.19,37.57a9.41,9.41,0,0,1-5.35,8.52L415.77,491a1.06,1.06,0,0,0-.61.95v.55h22.91l-3.35-51.86,1.35-29.36h12v29.9l4.18,37.57A9.37,9.37,0,0,1,447,487.22Z" fill="#3b3f41"/>
          <path d="M448.85,338.38l-.59-10.71h-8.63l-.56,12.74c-7.58,2.91-8.6,5.95-8.6,11.85l28.24-2.07C458.68,344.29,457.91,339.46,448.85,338.38Z" fill="#efb87b"/>
          <path d="M452.34,478.71a9.37,9.37,0,0,1-5.34,8.51L439.67,491a1,1,0,0,0-.6,1v.55H462l-.91-14h-8.76Z" fill="#103540"/>
          <path d="M437.21,478.44h-8.77v.27a9.38,9.38,0,0,1-5.35,8.51L415.77,491a1,1,0,0,0-.61,1v.55h22.91Z" fill="#103540"/>
          <polygon points="460.92 476 452.04 476 452.32 478.44 461.08 478.44 460.92 476" fill="#d8e5e9"/>
          <polygon points="437.05 476 428.17 476 428.44 478.44 437.21 478.44 437.05 476" fill="#d8e5e9"/>
          <path d="M438.24,307.07c-3,2-3,8.42,1.14,10.63s5.38-4,5.38-4Z" fill="#774331"/>
          <path d="M447.68,315.46c-4.36-2.29-7.71-.64-11.1,3.59-.47.51-2.78,3.12-2.8,3.88a2.57,2.57,0,0,0,1.36,2c-1.58,4.42-1.06,7.49,1.58,8.9,3.6,1.92,8.9.17,12.44-6.48C452.07,322,452.35,318,447.68,315.46Z" fill="#efb87b"/>
          <path d="M441.35,328.38a21.31,21.31,0,0,0,5-5.54c1.41-2.29-.1-5.42-3.1-7-1.3-.69-2.36-1.31-2.36-1.31a5.53,5.53,0,0,1-2.73-7.34h0v-.08c1.75-1.15,3.59,1.46,3.59,1.46s.55-1.67,1.81-1c3.92,3.89,7.83,5,10.48,7.28a4.41,4.41,0,0,1,1.14,5.23,37.23,37.23,0,0,1-7.65,11.76c-6,6-12.68,2.12-15,.89a1.37,1.37,0,0,1-.72-1.4C433.18,324.85,434.9,321.26,441.35,328.38Z" fill="#774331"/>
          <path d="M443.65,319.91l-4.32-1.77a.32.32,0,0,0-.4.17l-.26.66-1.69-.69.26-.66a.3.3,0,0,0-.13-.39h0l-2.44-1a.32.32,0,0,0-.4.16l-1.06,2.51a.31.31,0,0,0,.18.4l2.21.9c.43-.5.8-.93,1-1.14l.16-.2h0l1.7.7-.5,1.22a.33.33,0,0,0,.16.39h0l4.34,1.77a.29.29,0,0,0,.38-.16h0l1-2.44a.31.31,0,0,0-.15-.41Zm-7.86-.36-1.87-.77.76-1.88,1.89.77Zm6.58,2.7-3.76-1.55.77-1.87,3.76,1.53Z" fill="#103540"/>
          <path d="M415.33,376.87c-2.08-1.07-8.08-8.64-10-9.84-1-.6-1.95-1.2-2.92-1.82l-1.44-.93-1-1.86c-1.72-1.14-2.66-2.55-1.53-4.26a3.74,3.74,0,0,1,4.66-1.34h.1l1.47.67,1.51.67,3,1.31c2,.85,4.05,1.66,6.09,2.44s4.08,1.49,6.12,2.17,4.08,1.24,6.08,1.75h0c3.1.76.91,5.93.14,9S421.17,380,415.33,376.87Z" fill="#efb87b"/>
          <path d="M427.47,365.87h0c-2-.5-4-1.14-6.08-1.75l-1.83-.61a9.7,9.7,0,0,1,1.14,2.57,30.41,30.41,0,0,1,.74,3.78c.2,1.4.36,2.8.44,4.22a38,38,0,0,1,0,4.27c3,.13,5.29-.75,5.72-2.64C428.38,372.6,430.57,366.64,427.47,365.87Z" fill="#d8e5e9"/>
          <path d="M421.42,363.78c2.72,3.73,2.72,14.5,2.72,14.5l8.94-8s-4.47-15-8.94-12.39A7.44,7.44,0,0,1,421.42,363.78Z" fill="#2180b7"/>
          <rect x="405.7" y="352.13" width="17.41" height="26.2" rx="2.5" transform="translate(-92.7 146.2) rotate(-18.03)" fill="#ef5489"/>
          <rect x="407.27" y="354.24" width="13.94" height="19.85" transform="translate(-92.52 146.45) rotate(-18.07)" fill="#f4f8fa"/>
          <path d="M407.07,357.29a4.08,4.08,0,0,1,2.59-5.13h0a4,4,0,0,1,5.09,2.47l0,.1h0Z" fill="#d8e5e9"/>
          <path d="M404,366.15s3.81-6.5.91-11-9.53-.71-8.05,4S404,366.15,404,366.15Z" fill="#efb87b"/>
          <path d="M472.07,366c-2.4-6.14-7.62-19.25-9.15-20.77-2.6-3.51-7.84-6.11-14.15-6.86L438.85,345l.07-5.18c-9.82,2.72-14.86,8.6-14.86,14.5v45.31h36.58c0-9.48.25-17.28.64-23.69,0,0,11.53-6.68,11.48-7.07A12.45,12.45,0,0,0,472.07,366Z" fill="#2180b7"/>
          <path d="M435.17,387.55l-.42.94-.37,2.06,1.3-1.65v-.08A4.83,4.83,0,0,1,435.17,387.55Z" fill="#f6915a"/>
          <path d="M460,371.21c-2.76,2-5.49,4.67-9.48,6.48a43,43,0,0,1-9.6,2.88,5.27,5.27,0,0,0-4.17,1.34,2.29,2.29,0,0,0-.82,2c-2.47,1.74-.19,10.28,8,5.91a8.82,8.82,0,0,0,1.62-.68h0l1.32-.44c1.14-.4,2.28-.81,3.42-1.24,2.29-.84,4.57-1.72,6.86-2.64s4.57-1.91,6.86-3a16.09,16.09,0,0,0,7.81-7.18C467.28,369.28,461.36,370.22,460,371.21Z" fill="#efb87b"/>
          <path d="M472.9,370a8.88,8.88,0,0,0-.07-1.15c-3.21-.6-10.28-1.68-13.27.12l-.14,2.67c4-2.43,9.54,1.52,12.07,3.64A10.75,10.75,0,0,0,472.9,370Z" fill="#d8e5e9"/>
          <polygon points="440.66 375.32 441.58 375.75 438.16 383.35 436.95 383.55 440.66 375.32" fill="#f6915a"/>
          <path d="M448.73,335.8a48.38,48.38,0,0,1-9.75,8.42l.06-5.85a64.85,64.85,0,0,0-2.29,9L439,345l1.74,3.31s7-5.8,10.05-9.66C450.15,338.45,448.73,335.8,448.73,335.8Z" fill="#d8e5e9"/>
          <polygon points="445.61 348.66 446.27 351.2 446.93 348.66 445.61 348.66" fill="#6a707a"/>
          <rect x="443.93" y="349.78" width="4.69" height="7.92" rx="2.34" fill="#f4f8fa"/>
          <rect x="445.06" y="350.99" width="2.43" height="2.64" fill="#9870b1"/>
          <path d="M683.49,255.7h-8.68v8.69a2,2,0,0,1-2,2H663a2,2,0,0,1-2-2V255.7h-8.69a2,2,0,0,1-2-2v-9.83a2,2,0,0,1,2-2H661V233.2a2,2,0,0,1,2-2h9.84a2,2,0,0,1,2,2h0v8.69h8.71a2,2,0,0,1,2,2h0v9.89A2,2,0,0,1,683.49,255.7Z" fill="#ef5489"/>
          <circle cx="703.05" cy="266.5" r="27.04" fill="#fc6"/>
          <path d="M703.07,244.48a22,22,0,1,1-22,22h0a22.05,22.05,0,0,1,22-22m0-5a27,27,0,1,0,27,27h0a27,27,0,0,0-26.94-27.06h-.06Z" fill="#f69159"/>
          <path d="M705.07,249.27v2.95a7.54,7.54,0,0,1,3.43,1.39,8.61,8.61,0,0,1,1.29,1.27,2,2,0,0,1-.25,2.82l0,0-.29.2h0a2,2,0,0,1-2.49-.41,4.19,4.19,0,0,0-3.23-1.57,3.76,3.76,0,0,0-2.65,1,3.07,3.07,0,0,0-1,2.28,2.85,2.85,0,0,0,.83,2.12A13.17,13.17,0,0,0,704,263.3a34.77,34.77,0,0,1,3.59,1.85,9.13,9.13,0,0,1,2.13,1.68,7.51,7.51,0,0,1,2,5.29,8.5,8.5,0,0,1-1.83,5.39,8.85,8.85,0,0,1-4.85,3.12v3.14a1.56,1.56,0,0,1-1.55,1.57h0a1.57,1.57,0,0,1-1.57-1.57h0v-3a9.44,9.44,0,0,1-5.36-2.42,9.28,9.28,0,0,1-2.07-3.43,2,2,0,0,1,1.11-2.6h0l.29-.08h.15a2,2,0,0,1,2.29,1.23,7.08,7.08,0,0,0,1.41,2.28,4.66,4.66,0,0,0,3.25,1.14,4.57,4.57,0,0,0,3.34-1.37,4.26,4.26,0,0,0,1.3-3.23,3.87,3.87,0,0,0-1.14-2.86,10.92,10.92,0,0,0-1.64-1.14,26.86,26.86,0,0,0-2.81-1.48,13.43,13.43,0,0,1-4.58-2.87,7.17,7.17,0,0,1-1.32-7.08,6.61,6.61,0,0,1,1.14-2,7.6,7.6,0,0,1,1.92-1.56,10.21,10.21,0,0,1,2.61-1v-2.95a1.56,1.56,0,0,1,1.55-1.57h0a1.58,1.58,0,0,1,1.61,1.52h0Z" fill="#f69159"/>
          <g opacity="0.6">
            <g clip-path="url(#a1cb16ac-ac4c-44cc-81c8-910926f7aada)">
              <g>
                <rect x="667.75" y="255.44" width="63.1" height="13.69" transform="translate(-7.68 503.11) rotate(-39.37)" fill="url(#ac3f1410-98b1-4c6d-a3c5-6d540aa1c584)"/>
                <rect x="676.97" y="269.84" width="63.1" height="7.35" transform="translate(-12.71 511.5) rotate(-39.37)" fill="url(#afafe13c-bc6e-4910-995c-0a230b936dc0)"/>
              </g>
            </g>
          </g>
          <path d="M228.6,282.57A29.36,29.36,0,1,1,258,253.2h0A29.4,29.4,0,0,1,228.6,282.57Zm0-51.85a22.49,22.49,0,1,0,22.47,22.51v0a22.49,22.49,0,0,0-22.49-22.49Z" fill="#fff"/>
          <path d="M228.6,223.86v6.86a22.49,22.49,0,1,1-16.73,37.53l-5.11,4.57a29.35,29.35,0,1,0,21.84-49Z" fill="#a0d1e0"/>
          <path d="M219.07,258.21h0c.62-.19,6.86-1.59,6.86-1.64-.17-.83-.33-1.6-.52-2.56a14.91,14.91,0,0,1,0-5.65,11.66,11.66,0,0,0-.93-7.53,6.77,6.77,0,0,0-4.11-3.81c-2-.38-3.43,1.36-4.16,3.08a14.21,14.21,0,0,0-.59,7.75,37.22,37.22,0,0,0,2.36,7.51A24.58,24.58,0,0,1,219.07,258.21Z" fill="#c962a5"/>
          <path d="M226.07,257.57l-6.72,1.6c.33,1,.65,1.94,1,2.81a3.65,3.65,0,0,0,3.92,2.71,3.43,3.43,0,0,0,2.47-3.89C226.46,259.45,226.31,258.42,226.07,257.57Z" fill="#c962a5"/>
          <path d="M238.81,266.46h0c-.63-.2-6.85-1.59-6.85-1.64.18-.84.34-1.6.51-2.57a14.42,14.42,0,0,0,0-5.63,11.62,11.62,0,0,1,.94-7.54,6.68,6.68,0,0,1,4.09-3.81c2.06-.39,3.43,1.35,4.17,3.07a14.25,14.25,0,0,1,.59,7.76,37.13,37.13,0,0,1-2.36,7.5A29,29,0,0,0,238.81,266.46Z" fill="#c962a5"/>
          <path d="M231.73,265.81l6.71,1.6c-.32,1-.64,1.95-.95,2.81a3.65,3.65,0,0,1-3.92,2.71,3.44,3.44,0,0,1-2.48-3.88C231.34,267.67,231.54,266.66,231.73,265.81Z" fill="#c962a5"/>
          <rect x="257.79" y="422.62" width="25.33" height="38.09" rx="1.44" fill="#ef5489"/>
          <rect x="260.3" y="426.43" width="20.29" height="28.89" fill="#f4f8fa"/>
          <rect x="262.88" y="429.95" width="3.37" height="3.37" fill="#48c1bc"/>
          <path d="M277.88,431.31H267.59a.2.2,0,0,1-.19-.19h0a.21.21,0,0,1,.19-.19h10.29a.21.21,0,0,1,.19.19h0a.2.2,0,0,1-.19.19Z" fill="#48899b"/>
          <path d="M272.07,432.47h-4.58a.2.2,0,0,1,0-.39h4.58a.21.21,0,0,1,.19.2h0A.21.21,0,0,1,272.07,432.47Z" fill="#48899b"/>
          <path d="M264.61,432.78a.33.33,0,0,1-.14,0l-.77-.94a.2.2,0,0,1,0-.25.18.18,0,0,1,.24,0l.61.75a5.77,5.77,0,0,1,2.22-2.11.18.18,0,0,1,.23.07h0a.16.16,0,0,1-.06.22h0a5.13,5.13,0,0,0-2.18,2.17.19.19,0,0,1-.14.11Z" fill="#48899b"/>
          <rect x="262.88" y="435.73" width="3.37" height="3.37" fill="#48c1bc"/>
          <path d="M277.88,437.1H267.59a.2.2,0,0,1,0-.39h10.29a.21.21,0,0,1,.19.2h0A.21.21,0,0,1,277.88,437.1Z" fill="#48899b"/>
          <path d="M274.4,438.26h-6.85a.2.2,0,0,1-.2-.2h0a.19.19,0,0,1,.19-.19h6.86a.21.21,0,0,1,.2.19.2.2,0,0,1-.2.2Z" fill="#48899b"/>
          <path d="M264.61,438.56a.17.17,0,0,1-.14,0l-.77-.93a.2.2,0,0,1,0-.25.16.16,0,0,1,.23,0h0l.61.74a5.66,5.66,0,0,1,2.22-2.12.17.17,0,0,1,.23.06h0a.16.16,0,0,1-.05.21h0a5.21,5.21,0,0,0-2.18,2.18.21.21,0,0,1-.14.1Z" fill="#48899b"/>
          <rect x="262.88" y="441.51" width="3.37" height="3.37" fill="#48c1bc"/>
          <path d="M277.88,442.88H267.59a.2.2,0,0,1-.19-.19h0a.21.21,0,0,1,.19-.19h10.29a.21.21,0,0,1,.19.19h0a.2.2,0,0,1-.19.19Z" fill="#48899b"/>
          <path d="M264.61,444.35h-.14l-.77-.94a.2.2,0,0,1,0-.25.16.16,0,0,1,.23,0h0l.61.74a5.87,5.87,0,0,1,2.22-2.09.19.19,0,0,1,.24.07.16.16,0,0,1-.05.22h0a5.11,5.11,0,0,0-2.18,2.16.21.21,0,0,1-.14.1Z" fill="#48899b"/>
          <rect x="263.03" y="447.3" width="3.37" height="3.37" fill="#48c1bc"/>
          <path d="M278.07,448.67H267.73a.19.19,0,0,1-.19-.19h0a.2.2,0,0,1,.19-.19h10.34a.21.21,0,0,1,.19.19A.2.2,0,0,1,278.07,448.67Z" fill="#48899b"/>
          <path d="M276.86,449.82h-9.14a.19.19,0,0,1-.2-.18h0a.2.2,0,0,1,.2-.2h9.14a.2.2,0,0,1,.24.15.2.2,0,0,1-.15.24Z" fill="#48899b"/>
          <path d="M264.61,450.13a.2.2,0,0,1-.14-.06l-.77-.93a.16.16,0,0,1,0-.23h0a.15.15,0,0,1,.21,0h0l.62.73a5.58,5.58,0,0,1,2.22-2.09.17.17,0,0,1,.23.06h0a.18.18,0,0,1-.07.23h0a4.92,4.92,0,0,0-2.18,2.17.19.19,0,0,1-.14.09Z" fill="#48899b"/>
          <path d="M264.54,427.35a5.93,5.93,0,0,1,5.89-5.93h0a5.9,5.9,0,0,1,5.93,5.86h0Z" fill="#d8e5e9"/>
          <rect x="97.23" y="157.43" width="50.71" height="68.57" fill="#b1e1f4"/>
          <polygon points="97.23 200.63 97.23 226 116.96 214.41 97.23 200.63" fill="#0e9d97"/>
          <rect x="66.26" y="145.85" width="50.71" height="68.57" fill="#f4f8fa"/>
          <path d="M137.42,187.14H127.13a.6.6,0,0,1-.59-.6h0a.58.58,0,0,1,.59-.59h10.29a.58.58,0,0,1,.6.58h0a.6.6,0,0,1-.6.6Z" fill="#48899b"/>
          <path d="M137.42,181.5H127.13a.58.58,0,0,1-.59-.59h0a.6.6,0,0,1,.59-.6h10.29a.6.6,0,0,1,.6.6h0a.58.58,0,0,1-.59.59Z" fill="#48899b"/>
          <rect x="127.09" y="165.2" width="10.33" height="10.33" fill="#fc6"/>
          <path d="M137.42,216.25H127.13a.6.6,0,0,1-.75-.37.61.61,0,0,1,.37-.76h.06a.58.58,0,0,1,.32,0h10.29a.6.6,0,0,1,.73.4h0a.6.6,0,0,1-.4.73A.62.62,0,0,1,137.42,216.25Z" fill="#48899b"/>
          <path d="M137.42,210.61H127.13a.59.59,0,0,1-.38-1.12h.06a.58.58,0,0,1,.32,0h10.29a.59.59,0,0,1,.73.39h0a.59.59,0,0,1-.4.73A.47.47,0,0,1,137.42,210.61Z" fill="#48899b"/>
          <rect x="127.09" y="194.33" width="10.33" height="10.33" fill="#fc6"/>
          <path d="M100.7,190.87l3.22-3.23h0l4.94,4.94a2.29,2.29,0,0,1,0,3.23h0a2.28,2.28,0,0,1-3.22,0h0Z" fill="#48c1bc"/>
          <path d="M78.8,165.73h0a9,9,0,0,1,12.67,0h0L105.72,180a4.09,4.09,0,0,1,0,5.77h0l-6.86,6.86a4.1,4.1,0,0,1-5.8,0h0L78.84,178.4A9,9,0,0,1,78.8,165.73Z" fill="#a0d1e0"/>
          <circle cx="84.71" cy="171.59" r="3.67" fill="#48c1bc"/>
          <rect x="90.62" y="176.12" width="9.2" height="11.97" rx="4.19" transform="translate(-100.88 120.67) rotate(-45)" fill="#f4f8fa"/>
          <path d="M87.07,178.64a.64.64,0,0,1-.46-1.09l4.08-4.07a.64.64,0,0,1,.91.9l-4.08,4.08A.59.59,0,0,1,87.07,178.64Z" fill="#48899b"/>
          <path d="M545.34,259.45s35-20.95,35-40.64a18.29,18.29,0,0,0-35-7.6,18.29,18.29,0,0,0-35,7.6C510.38,238.46,545.34,259.45,545.34,259.45Z" fill="#ef5489"/>
          <path d="M547.82,247.63h-.2a1.28,1.28,0,0,1-1-1l-5.72-27.18-5.47,21.83a1.28,1.28,0,0,1-1.56.91,1.23,1.23,0,0,1-.79-.6l-6-10.71-5.64,4.84a1.25,1.25,0,0,1-.82.31h-20a1.28,1.28,0,0,1-1.16-1.39,1.26,1.26,0,0,1,1.16-1.16h19.45l6.46-5.54a1.27,1.27,0,0,1,1.79.14h0l.13.18,5.26,9.32,6-24.11a1.26,1.26,0,0,1,1.49-1h0a1.23,1.23,0,0,1,1,1l6.15,29.38,5.17-8.78a1.24,1.24,0,0,1,1.14-.63H561l6.46-6.86a1.24,1.24,0,0,1,.91-.4h0a1.24,1.24,0,0,1,.91.4l6.46,6.86h14.36a1.28,1.28,0,0,1,.27,2.55h-15.2a1.3,1.3,0,0,1-.93-.4l-5.89-6.24-5.91,6.25a1.3,1.3,0,0,1-.93.4h-6.07l-6.47,11A1.25,1.25,0,0,1,547.82,247.63Z" fill="#0383a4"/>
          <path d="M516.4,136a2.62,2.62,0,0,1-2.09-1l-8-10.39-7.46,5.29a2.8,2.8,0,0,1-.62.32l-9.53,3.43a2.56,2.56,0,0,1-1.81,0l-8.81-3.2-8.79,1.85a2.68,2.68,0,0,1-1.86-.29l-8-4.57-8.15,5.92a2.64,2.64,0,1,1-3.1-4.28l9.52-6.92a2.61,2.61,0,0,1,2.87-.15l8.66,5,8.54-1.8a2.65,2.65,0,0,1,1.45.11l8.62,3.13,8.3-3,9.23-6.55a2.65,2.65,0,0,1,3.63.55l8,10.47,7.48-4.87a2.64,2.64,0,1,1,3.17,4.22l-.17.12-.13.08-9.53,6.2A2.51,2.51,0,0,1,516.4,136Z" fill="#0e9d97"/>
          <path d="M449.71,170a2.64,2.64,0,0,1-2.64-2.62h0v-17.9a2.64,2.64,0,0,1,5.28,0v17.88a2.63,2.63,0,0,1-2.62,2.64h0Z" fill="#ef5489"/>
          <path d="M459.23,170a2.64,2.64,0,0,1-2.64-2.64h0V142.93a2.64,2.64,0,1,1,5.28,0h0v24.38a2.62,2.62,0,0,1-2.6,2.64h0Z" fill="#47c2bb"/>
          <path d="M468.76,170a2.64,2.64,0,0,1-2.64-2.62h0V157.15a2.65,2.65,0,0,1,5.29,0v10.16a2.64,2.64,0,0,1-2.62,2.64h0Z" fill="#ef5489"/>
          <path d="M478.3,170a2.63,2.63,0,0,1-2.64-2.62h0v-14.7a2.64,2.64,0,1,1,5.28,0h0v14.63a2.64,2.64,0,0,1-2.62,2.64Z" fill="#47c2bb"/>
          <path d="M487.82,170a2.64,2.64,0,0,1-2.64-2.64h0V152.68a2.64,2.64,0,0,1,5.28,0h0v14.63a2.64,2.64,0,0,1-2.62,2.64h0Z" fill="#ef5489"/>
          <path d="M497.35,170a2.64,2.64,0,0,1-2.64-2.62h0v-22a2.64,2.64,0,1,1,5.28,0h0v22A2.63,2.63,0,0,1,497.4,170h0Z" fill="#47c2bb"/>
          <path d="M506.88,170a2.64,2.64,0,0,1-2.64-2.62h0V137.61a2.64,2.64,0,0,1,5.28,0h0v29.66a2.63,2.63,0,0,1-2.58,2.68h0Z" fill="#ef5489"/>
          <path d="M516.4,170a2.65,2.65,0,0,1-2.64-2.64v-12.2a2.64,2.64,0,0,1,5.28,0h0v12.2a2.62,2.62,0,0,1-2.6,2.64h0Z" fill="#47c2bb"/>
          <path d="M525.94,170a2.63,2.63,0,0,1-2.64-2.62h0v-18.8a2.64,2.64,0,0,1,5.28,0h0v18.69A2.65,2.65,0,0,1,526,170h0Z" fill="#ef5489"/>
          <path d="M210.91,632.57l-15.46-7.73a19.42,19.42,0,0,1-11.3-17.59h0l-7.65-5.6-6.64,5.65c.44,16.52.74,28.37.74,28.37h41.58v-1.15A2.17,2.17,0,0,0,210.91,632.57Z" fill="#f4f8fa"/>
          <path d="M184.58,611.31h-9.4c1,9.91,12.25,16,12.25,16H200.3l-4.85-2.47A19.4,19.4,0,0,1,184.58,611.31Z" fill="#ef5489"/>
          <path d="M167.24,632.57l-15.49-7.73a19.42,19.42,0,0,1-11.23-17.59h0l-7.65-5.6-6.65,5.65c.45,16.52.75,28.37.75,28.37h41.59v-1.15A2.19,2.19,0,0,0,167.24,632.57Z" fill="#f4f8fa"/>
          <path d="M140.91,611.31h-9.4c1,9.91,12.23,16,12.23,16h12.85l-4.87-2.42A19.42,19.42,0,0,1,140.91,611.31Z" fill="#ef5489"/>
          <path d="M191.88,479.45c-8.11-45.47-30.75-45-32.25-42.14-1.51-2.89-24.14-3.33-32.27,42.14-8.39,47-1.25,131.86-1.25,131.86h23.1L159.63,481l10.44,130.31h23.12S200.28,526.48,191.88,479.45Z" fill="#103540"/>
          <path d="M237,355.56c0-6-6.13-10.91-11.12-10.91s-6.94,4.89-6.94,10.91a12.87,12.87,0,0,0,.92,4.79,12,12,0,0,0-3.85,5.29l15.12,3C230.94,367.71,237,360.51,237,355.56Z" fill="#efb87b"/>
          <path d="M137.31,328.7c5.63.79,29.93,6.94,47.09-8.89.21-.19.13-.3-.16-.33-8.37-1-8.67-14.07-10.75-23.11-2.89-12.57-19.9-21.31-32.47-10.72-10.42,8.79-7.79,32.38-5.48,42.29C135.68,328.54,136.64,328.6,137.31,328.7Z" fill="#697079"/>
          <path d="M170.07,326.89l-2.66-9.65-2.86,9.65a2.87,2.87,0,1,0,5.52,1.57A2.8,2.8,0,0,0,170.07,326.89Zm-1.14,2a2,2,0,0,1-3.56-1.8l2-6.79,1.88,6.86a2,2,0,0,1-.35,1.7Z" fill="#f6915a"/>
          <path d="M166.64,334.18l-.85-11.79-12.17-5.46-.85,17.25c-12.78,2.34-12.38,13.52-12.38,27H178.6C178.6,347.7,179.45,336.52,166.64,334.18Z" fill="#efb87b"/>
          <path d="M169.07,334.76c3,13.92-15,13.9-18.28-.1-12.58,3.43-20.42,17.94-20.42,30.69v6.47a27.43,27.43,0,0,0,27.43,27.43h3.95a27.43,27.43,0,0,0,27.43-27.43h0v-6.47C189.07,352.73,181.59,338.42,169.07,334.76Z" fill="#c962a5"/>
          <path d="M222.73,348.75a5,5,0,0,1-.64-1.43,3.92,3.92,0,0,1-.11-1.6,3.75,3.75,0,0,1,.23-.81,3.71,3.71,0,0,1,1.06-1.3c.2-.17.44-.3.67-.46a.5.5,0,0,1,.69.14h0a.48.48,0,0,1-.11.67h-.11c-.19.1-.4.2-.58.31a3.31,3.31,0,0,0-.5.41,2.15,2.15,0,0,0-.4.5,1.91,1.91,0,0,0-.23.6,3.36,3.36,0,0,0,0,1.34,4.77,4.77,0,0,0,.44,1.32h0a.22.22,0,0,1-.09.29.21.21,0,0,1-.28,0Z" fill="#3a3f41"/>
          <path d="M222.62,348.13c-4.64-5.17-8.73.2-8,5.58.74,5.16,3.43,9.37,7.41,7.22a1.18,1.18,0,0,1,1.15,0c4.23,2.18,6.66-2,7.4-7.21C231.36,348.33,227.27,343,222.62,348.13Z" fill="#f15961"/>
          <path d="M219.45,349.12a.75.75,0,0,1-.42.2,1.17,1.17,0,0,0-.61.41.87.87,0,0,1-1.23.1h0a.87.87,0,0,1-.08-1.21h0a2.77,2.77,0,0,1,1.64-1,.88.88,0,0,1,1,.72h0A.9.9,0,0,1,219.45,349.12Z" fill="#fff"/>
          <circle cx="216.65" cy="351.05" r="0.74" fill="#fff"/>
          <path d="M231.07,368.68l-15.08-3-5.46,10.2c-7.84-13.21-17.47-26.09-28.11-34.1l-.21-.16a42.14,42.14,0,0,0-11.94-6.51l-.2-.11c-.36-.13-1-.23-1.4-.33l.27,34.2-18.18-34.2-1.15.33-.26.08a42.21,42.21,0,0,0-12,6.46l-.18.21c-14.56,10.95-27.24,31.17-35.9,48.63A43.81,43.81,0,0,0,112,443l5.26,4.52a623.23,623.23,0,0,0-2.5,66.8h89.67s-.22-40.73-4.42-80.2a17.76,17.76,0,0,0,12.71-3.6l1.14-.91C232.54,415.35,234.46,394.62,231.07,368.68Z" fill="#0383a4"/>
          <path d="M149.38,335.07a41.4,41.4,0,0,0-11.67,6.23,3.16,3.16,0,0,1,.48.86l6.2,7,8.28-.33-4.44,4.65,20.58,23.29c.1,6.21.17,10.45.17,10.45l11.85-33.88-6.76-4.5,8.18.32,2.08-5.94-2-1.53-.22-.16a42.16,42.16,0,0,0-11.9-6.46l-.19-.07c-.36-.13-1-.23-1.4-.33l.27,34.2-18.18-34.2-1.15.33Z" fill="#1b566b"/>
          <circle cx="172.51" cy="393.57" r="3.15" fill="#1b566b"/>
          <circle cx="172.51" cy="410.37" r="3.15" fill="#1b566b"/>
          <path d="M139.23,436a10.83,10.83,0,0,0-8.22-3.78l-11.64,16.45a18.13,18.13,0,0,0,3.16,1.77c3.28-1.6,8.45-4.09,12.21-10.21,1.45,1,3.64,2.2,4.89,1.2C141.07,440.27,140.9,438.06,139.23,436Z" fill="#efb87b"/>
          <polygon points="143.38 365.13 144.74 370.38 146.11 365.13 143.38 365.13" fill="#6a707a"/>
          <rect x="139.89" y="367.44" width="9.69" height="16.38" rx="1.92" fill="#f4f8fa"/>
          <rect x="142.22" y="369.95" width="5.04" height="5.46" fill="#9870b1"/>
          <path d="M150.07,287.8c8.76-4.07,15.1-.41,21.27,8.24.85,1,5.08,6.4,5,7.9a4.91,4.91,0,0,1-2.87,3.65c2.6,8.83,1.25,14.76-4.06,17.23-7.25,3.35-17.4-.67-23.6-14C140.85,300,140.67,292.15,150.07,287.8Z" fill="#efb87b"/>
          <path d="M150.3,328.94l-2.66-9.63-2.86,9.59a2.87,2.87,0,0,0,5.46,1.76l.06-.2a2.76,2.76,0,0,0,0-1.56Zm-1.14,2a2,2,0,0,1-3.56-1.8l2-6.79,1.88,6.86a2,2,0,0,1-.35,1.73Z" fill="#f6915a"/>
          <path d="M163,328.59l.27-.12h-1c-2.81-.62-11-3.82-9.07-19.73,3.1-3.74,6.34-10.41,7.32-22.14-5.07-4.17-10.91-1.84-12.45-1.15-6.22,4.58-10.42,8.64-9.46,14.42-1,.84,2.7,8.31,2.7,8.31L138.42,328l-2.86-.06a1.59,1.59,0,0,0,1.35,1.22c3.53.51,15.92,3.38,25.46-.26l.85-.24Z" fill="#697079"/>
          <path d="M811.44,493.2l11.42-55.58a8.1,8.1,0,0,0-5.61-9.4c-11.68-3.49-35.78-8.89-56.53-2.11-28.57,9.33-16.84,63.28-16.84,63.28Z" fill="#3b3f41"/>
          <path d="M759.07,378.15l-18.52,2.46c4.43,27.83,8,42.95,18.56,42.95C779.27,423.51,788.58,402.62,759.07,378.15Z" fill="#774331"/>
          <path d="M757.78,347.88c-7.17-3-11.66-22.51-25.77-15.86-11.73,5.54-3,26.42-3,26.42S765,350.89,757.78,347.88Z" fill="#774331"/>
          <path d="M792.82,434.53c-7.17-23.85-20.19-33.65-35.76-36.88l-1-22.3-14.85,6-1,16.34c-15.56,3.23-30.37,21.71-34.91,42.29Z" fill="#b26e4b"/>
          <path d="M749.64,344.68c-9.78-3.18-16,1.5-21.41,11.43-.76,1.21-4.57,7.41-4.3,9a5.31,5.31,0,0,0,3.5,3.49c-1.61,9.65.58,15.74,6.5,17.66,8.08,2.62,18.29-2.92,23.12-17.83C760.94,356.42,760.13,348.08,749.64,344.68Z" fill="#b26e4b"/>
          <path d="M736.22,346.18s7.6,27.91,21.54,36.78c0,0,10.94-2,12-17.68s-8.83-16.43-16.25-19.94S742.14,336.45,736.22,346.18Z" fill="#774331"/>
          <path d="M728.55,385.37a46.39,46.39,0,0,1-5-.27l.13-1.26c19.67,2.05,26.8-8.89,26.87-9l1.07.68C751.34,375.94,745.21,385.37,728.55,385.37Z" fill="#103541"/>
          <circle cx="755.09" cy="372" r="5.92" fill="#103541"/>
          <path d="M754.58,345.55h0c7.4,6.86-.56,22.86-.56,22.86L760,371s8.73-15,.68-22.67C758.86,347.46,754.74,345.71,754.58,345.55Z" fill="#103541"/>
          <rect x="722.1" y="381.33" width="2.96" height="5.07" rx="1.47" transform="translate(136.9 955.46) rotate(-72.2)" fill="#103541"/>
          <path d="M709.93,425.18l.18-.27C710.15,424.71,710.07,424.84,709.93,425.18Z" fill="#48c1bc"/>
          <path d="M792.82,434.53C785.68,410.8,772.76,401,757.3,397.7c-2.67,7.59-8,11.17-12.94,11.17s-7.56-4.86-5-11c0,0-3.81,1.14-4.17,1.33a33,33,0,0,0-4.1,2c-9.43,5.52-15.83,14.51-21.16,23.79-1.84,3.22-6,7.47-10,5.14a5.81,5.81,0,0,1-2.66-3.73c-.11-.44,0-5.13.84-4.81l-19.65-8c-7,19.58-4.73,32.5,2,41a36.86,36.86,0,0,0,15.83,11c1.87.73,12.71,1.35,14.63,1.88a66.12,66.12,0,0,1-4,21.83l45.11-.9v-.12C812.58,498.33,792.82,434.53,792.82,434.53Z" fill="#10bef0"/>
          <path d="M740.38,394.65c-.25,1-.52,2-.81,3.13l.61-.13Z" fill="none"/>
          <path d="M733.45,431.11c5-13.05,16-24.91,25.21-33.14-.52-.13-1.06-.25-1.6-.36v-.25c-8.68,7.65-18.71,18.17-23.38,29.23a267.48,267.48,0,0,1,5.89-28.84c-.5.11-1,.23-1.47.37-2.37,9.44-5.78,24.32-6.21,33.38Z" fill="#ef5489"/>
          <path d="M734.32,429.75c-.32.55-.63,1.15-.94,1.65l-1.72,3.16v-5.38Z" fill="#6a707a"/>
          <rect x="726.92" y="432.79" width="10.31" height="17.42" rx="1.83" fill="#f4f8fa"/>
          <rect x="729.41" y="435.47" width="5.36" height="5.82" fill="#9870b1"/>
          <path d="M702.59,413.11c-.18-3.37-1.54-3.6-3.06-2.73.39-8.4-2.29-14.55-8.22-16.2-5.45-1.51-7.11,2.84-9,8.88-.38,1.23-.79,2.45-1.25,3.64l-2.61,6.86v.11c3.42,6.47,12.57,9.75,19.59,7.92C699.92,418.47,702.85,416.71,702.59,413.11Z" fill="#b26e4b"/>
          <polygon points="570.15 481.85 675.79 486.56 680.33 600.1 570.15 600.12 570.15 481.85" fill="#103540"/>
          <path d="M667.16,510.25c-11.52,1-22.24,7.67-29.57,13.44a18.1,18.1,0,0,0-5.94,20l25.07,66.38a13.12,13.12,0,0,1-7.23,16.14c-1.58.68-3.32,1.46-5.37,2.41l35,10L679,597.86Z" fill="#b26e4b"/>
          <path d="M666.28,630.83a50.77,50.77,0,0,1-19.06-3.59c-1,.43-2,.88-3.09,1.4l-13.62,6.27a2.66,2.66,0,0,0-1.54,2.38v1.36h50.16v-9.38A52.5,52.5,0,0,1,666.28,630.83Z" fill="#3b3f41"/>
          <path d="M631.65,543.71,641.93,571a60.8,60.8,0,0,0,17.82,2.64,62.81,62.81,0,0,0,10.69-.92l37.41-73.91-22.14,3c-22.77,3-40.79,16.08-48.12,21.85A18.1,18.1,0,0,0,631.65,543.71Z" fill="#0383a4"/>
          <path d="M653.07,477.28H569a3.66,3.66,0,0,0-3.66,3.66h0V595.18a3.72,3.72,0,0,0,1.8,3.16l3,1.78V488l99,12.48V661l8.4,5a3.67,3.67,0,0,0,1.88.52h136.9a3.66,3.66,0,0,0,3.65-3.67h0V490.48a3.67,3.67,0,0,0-3.42-3.66Z" fill="#1b566b"/>
          <path d="M735.44,467.26v14.86H713.21a10.49,10.49,0,0,1-.25-2.56c0-5.93,10.67-12.27,20.7-12.27Z" fill="#b26e4b"/>
          <path d="M607.29,433.3c-1.75-.45-3-7.24-3.32-8.73-.54-2.74,0-7-1.23-9.37-1.68.67-2.73,4.93-3.08,6.67a11.22,11.22,0,0,0-.25,2.83,19.73,19.73,0,0,0-7.67-3,10.4,10.4,0,0,0,2.28,4.83,13,13,0,0,0,2.39,2.63c-3.21,1.22-8.24,4.06-5.2,4.57,1.68.3,7-.9,8.9-1.14A15.1,15.1,0,0,1,607.29,433.3Z" fill="#c962a5"/>
          <path d="M617.94,446.65a25.31,25.31,0,0,0-2-7.14,12.92,12.92,0,0,0-9-6.71l-5.43-.61,6.32,4.83c.68.53,1.37,1.05,2,1.64a41.14,41.14,0,0,0-4.57.34,17.15,17.15,0,0,0-5.89,1.48,16.43,16.43,0,0,0-5.37,4.75,33.22,33.22,0,0,0-5.45,10.28,24.79,24.79,0,0,1,15-5.23c3.72,0,7.91.63,10.72-1.79h0c1.82,6.09,3.63,21.52,7.12,17.7Z" fill="#0e9d97"/>
          <path d="M624,464.13a68.86,68.86,0,0,1,4.34-19.52,11.82,11.82,0,0,1,1.85-3.49c1.93-2.22,5.06-2.82,7.81-3.82a22.85,22.85,0,0,0,9.15-6.39c1.88-2.15,5.52-7,4.88-10-3.36.72-7.15,2-10.55,3a19.18,19.18,0,0,0-8.18,4.76,34,34,0,0,0,1.15-10.29c0-1,.13-4.39-1-4.7s-2.67,3-3.1,3.73a31.09,31.09,0,0,0-3.53,10.48,25.65,25.65,0,0,0-.15,6.19c.22,1.08.49,2.15.81,3.19-.19.4-.36.8-.54,1.2a63,63,0,0,0-4.29,14.28,62.76,62.76,0,0,1,.34-9.69c.49-4.08,1.48-8.13,1.43-12.24A25.12,25.12,0,0,0,617,413.49c-1.47-1.48-5.8-5.83-7-3.34-.68,1.34.16,5,.27,6.52a46.79,46.79,0,0,0,.91,6.45,24.57,24.57,0,0,0,6.34,12.48,9.91,9.91,0,0,1,2.42,2.93,7.57,7.57,0,0,1,.44,2.63q.51,11.79,1,23.57a3.36,3.36,0,0,0,2.38,0,1.63,1.63,0,0,0-.08-.62A1,1,0,0,0,624,464.13Z" fill="#0e9d97"/>
          <path d="M646.33,438.4c-3.09-.69-6.5-.89-9.26.68-3,1.71-4.58,5.13-6,8.33q-2.79,6.48-5.57,13a7.14,7.14,0,0,0-.75,2.75,2,2,0,0,0,1.74,2.23h0a2,2,0,0,0,1.79-.71c1-1.09,1.14-3.85,1.6-5.25a84.58,84.58,0,0,1,5.71-14.23,16.73,16.73,0,0,0,11.08,2,12.44,12.44,0,0,0,8.87-6.61C652.43,440.28,649.42,439.11,646.33,438.4Z" fill="#0e9d97"/>
          <path d="M633.73,425.87c.08-2.29,6.22-4.83,7.56-5.41,2.47-1.07,6.6-1,8.58-2.89-.94-2-5.16-2.7-6.86-2.89a8.27,8.27,0,0,0-2.72.1,30.54,30.54,0,0,0,1.34-10,9.19,9.19,0,0,0-4.13,3.52,15.22,15.22,0,0,0-2,3.36c-1.77-3.83-5.41-9.69-5.33-5.82,0,2.14,2.2,8.64,2.82,10.94A25.33,25.33,0,0,1,633.73,425.87Z" fill="#c962a5"/>
          <path d="M623.29,452.54c-1-1.08.55-5.25.88-6.18.63-1.69,2.56-3.68,2.59-5.5-1.42-.47-3.71,1.26-4.58,2a6,6,0,0,0-1.21,1.36,20,20,0,0,0-4.23-5.28,6.05,6.05,0,0,0-.2,3.62,9,9,0,0,0,.71,2.54c-2.69-.91-7.22-1.87-5.31-.11,1.07,1,5.22,2.93,6.62,3.7A16.44,16.44,0,0,1,623.29,452.54Z" fill="#c962a5"/>
          <path d="M632.07,460.91H614.92a23.36,23.36,0,0,1-6-.78,1.45,1.45,0,0,0-1.77,1h0a1.21,1.21,0,0,0,0,.38V477a2.92,2.92,0,0,0,2.28,2.85,23.21,23.21,0,0,0,5.57.68h17.07a23.21,23.21,0,0,0,5.57-.68A2.93,2.93,0,0,0,640,477V461.55a1.46,1.46,0,0,0-1.46-1.46h0a1.15,1.15,0,0,0-.37,0A23.49,23.49,0,0,1,632.07,460.91Z" fill="#f15961"/>
          <path d="M740.77,350.68c-3.57-1.14-7.7,2-9.22,6.86a2,2,0,0,1-.11.4l-3.65-1.14.44-.71a17.55,17.55,0,0,1,1-1.67c.31-3.43-1.07-6.33-3.52-7.1-3-.92-6.52,1.75-7.83,6s.07,8.42,3.07,9.35a4.82,4.82,0,0,0,4-.7c.65-1.36,1.49-2.85,2.18-4l4,1.28c-.74,4.3.93,8.25,4.1,9.23,3.55,1.15,7.69-2,9.14-6.85S744.33,351.79,740.77,350.68Zm-19.43,10.78c-2.29-.72-3.35-4.21-2.29-7.77s3.9-5.86,6.24-5.14,3.34,4.2,2.29,7.77-4,5.87-6.3,5.14Zm22-.26c-1.3,4.23-4.72,6.94-7.62,6s-4.18-5.07-2.87-9.3,4.73-6.94,7.63-6,4.18,5.08,2.86,9.28Z" fill="#47c2bb"/>
          <path d="M679.24,476.75H659.35a4.67,4.67,0,0,0,3.56,2.55l35.53,4.7h27.63a3.1,3.1,0,0,0,3.12-3.08h0Z" fill="#fff"/>
          <path d="M685.23,419.25l-56,4.64a3,3,0,0,0-2.76,3.22v.05a.91.91,0,0,0,.06.4l9,40.61a3.41,3.41,0,0,0,3.06,2.75l8.6.77-5.8,8.49,26.14,4.22,3.3-11.32,23.5,1.58a3.43,3.43,0,0,0,3.65-3.2h0a4.25,4.25,0,0,0-.06-.87l-9.42-48.84A3,3,0,0,0,685.23,419.25Z" fill="#f4f8fa"/>
        </g>
      </g>
    </g>
  </g>
</svg>
